<svg width="32" height="32" xmlns="http://www.w3.org/2000/svg">
  <!-- USGS-style swamp pattern: irregular curved strokes with denser vegetation -->
  <defs>
    <pattern id="swamp-pattern" x="0" y="0" width="32" height="32" patternUnits="userSpaceOnUse">
      <rect width="32" height="32" fill="none"/>
      <!-- Denser curved vegetation strokes -->
      <path d="M 1,6 Q 2,3 3,0" stroke="#29b6f6" stroke-width="1" fill="none" opacity="0.7"/>
      <path d="M 5,8 Q 6,5 7,2" stroke="#29b6f6" stroke-width="1" fill="none" opacity="0.7"/>
      <path d="M 9,10 Q 10,7 11,4" stroke="#29b6f6" stroke-width="1" fill="none" opacity="0.7"/>
      <path d="M 13,8 Q 14,5 15,2" stroke="#29b6f6" stroke-width="1" fill="none" opacity="0.7"/>
      <path d="M 17,6 Q 18,3 19,0" stroke="#29b6f6" stroke-width="1" fill="none" opacity="0.7"/>
      <path d="M 21,10 Q 22,7 23,4" stroke="#29b6f6" stroke-width="1" fill="none" opacity="0.7"/>
      <path d="M 25,8 Q 26,5 27,2" stroke="#29b6f6" stroke-width="1" fill="none" opacity="0.7"/>
      <path d="M 29,6 Q 30,3 31,0" stroke="#29b6f6" stroke-width="1" fill="none" opacity="0.7"/>
      
      <path d="M 1,22 Q 2,19 3,16" stroke="#29b6f6" stroke-width="1" fill="none" opacity="0.7"/>
      <path d="M 5,24 Q 6,21 7,18" stroke="#29b6f6" stroke-width="1" fill="none" opacity="0.7"/>
      <path d="M 9,26 Q 10,23 11,20" stroke="#29b6f6" stroke-width="1" fill="none" opacity="0.7"/>
      <path d="M 13,24 Q 14,21 15,18" stroke="#29b6f6" stroke-width="1" fill="none" opacity="0.7"/>
      <path d="M 17,22 Q 18,19 19,16" stroke="#29b6f6" stroke-width="1" fill="none" opacity="0.7"/>
      <path d="M 21,26 Q 22,23 23,20" stroke="#29b6f6" stroke-width="1" fill="none" opacity="0.7"/>
      <path d="M 25,24 Q 26,21 27,18" stroke="#29b6f6" stroke-width="1" fill="none" opacity="0.7"/>
      <path d="M 29,22 Q 30,19 31,16" stroke="#29b6f6" stroke-width="1" fill="none" opacity="0.7"/>
      
      <!-- Additional curved elements for swamp character -->
      <path d="M 3,14 Q 5,12 7,10" stroke="#29b6f6" stroke-width="0.6" fill="none" opacity="0.5"/>
      <path d="M 19,14 Q 21,12 23,10" stroke="#29b6f6" stroke-width="0.6" fill="none" opacity="0.5"/>
      <path d="M 11,30 Q 13,28 15,26" stroke="#29b6f6" stroke-width="0.6" fill="none" opacity="0.5"/>
      <path d="M 27,30 Q 29,28 31,26" stroke="#29b6f6" stroke-width="0.6" fill="none" opacity="0.5"/>
    </pattern>
  </defs>
  <rect width="32" height="32" fill="url(#swamp-pattern)"/>
</svg>
