<svg width="32" height="32" xmlns="http://www.w3.org/2000/svg">
  <!-- USGS-style wetland pattern: vertical grass-like strokes -->
  <defs>
    <pattern id="wetland-pattern" x="0" y="0" width="32" height="32" patternUnits="userSpaceOnUse">
      <rect width="32" height="32" fill="none"/>
      <!-- Vertical wetland grass strokes -->
      <path d="M 2,8 Q 3,4 4,0" stroke="#4fc3f7" stroke-width="0.8" fill="none" opacity="0.6"/>
      <path d="M 6,10 Q 7,6 8,2" stroke="#4fc3f7" stroke-width="0.8" fill="none" opacity="0.6"/>
      <path d="M 10,12 Q 11,8 12,4" stroke="#4fc3f7" stroke-width="0.8" fill="none" opacity="0.6"/>
      <path d="M 14,10 Q 15,6 16,2" stroke="#4fc3f7" stroke-width="0.8" fill="none" opacity="0.6"/>
      <path d="M 18,8 Q 19,4 20,0" stroke="#4fc3f7" stroke-width="0.8" fill="none" opacity="0.6"/>
      <path d="M 22,12 Q 23,8 24,4" stroke="#4fc3f7" stroke-width="0.8" fill="none" opacity="0.6"/>
      <path d="M 26,10 Q 27,6 28,2" stroke="#4fc3f7" stroke-width="0.8" fill="none" opacity="0.6"/>
      <path d="M 30,8 Q 31,4 32,0" stroke="#4fc3f7" stroke-width="0.8" fill="none" opacity="0.6"/>
      
      <path d="M 2,24 Q 3,20 4,16" stroke="#4fc3f7" stroke-width="0.8" fill="none" opacity="0.6"/>
      <path d="M 6,26 Q 7,22 8,18" stroke="#4fc3f7" stroke-width="0.8" fill="none" opacity="0.6"/>
      <path d="M 10,28 Q 11,24 12,20" stroke="#4fc3f7" stroke-width="0.8" fill="none" opacity="0.6"/>
      <path d="M 14,26 Q 15,22 16,18" stroke="#4fc3f7" stroke-width="0.8" fill="none" opacity="0.6"/>
      <path d="M 18,24 Q 19,20 20,16" stroke="#4fc3f7" stroke-width="0.8" fill="none" opacity="0.6"/>
      <path d="M 22,28 Q 23,24 24,20" stroke="#4fc3f7" stroke-width="0.8" fill="none" opacity="0.6"/>
      <path d="M 26,26 Q 27,22 28,18" stroke="#4fc3f7" stroke-width="0.8" fill="none" opacity="0.6"/>
      <path d="M 30,24 Q 31,20 32,16" stroke="#4fc3f7" stroke-width="0.8" fill="none" opacity="0.6"/>
    </pattern>
  </defs>
  <rect width="32" height="32" fill="url(#wetland-pattern)"/>
</svg>
